<svg xmlns="http://www.w3.org/2000/svg" xmlns:xlink="http://www.w3.org/1999/xlink" preserveAspectRatio="xMidYMid" width="83" height="83" viewBox="0 0 83 83">
  <defs>
    <style>
      .cls-1, .cls-2 {
        fill: #f5c506;
        fill-rule: evenodd;
      }

      .cls-1 {
        opacity: 0.5;
      }
    </style>
  </defs>
  <g>
    <path d="M53.478,28.694 L52.766,9.913 L60.434,1.895 L61.147,20.675 L79.941,20.549 L72.273,28.568 L53.478,28.694 ZM60.635,40.738 L41.840,40.865 L41.127,22.083 L48.796,14.065 L49.509,32.845 L68.303,32.719 L60.635,40.738 ZM22.363,41.593 L14.344,33.925 L33.124,33.212 L32.999,14.418 L41.018,22.086 L41.144,40.881 L22.363,41.593 ZM2.174,22.287 L20.954,21.574 L20.829,2.779 L28.848,10.448 L28.974,29.243 L10.193,29.955 L2.174,22.287 ZM29.521,53.746 L30.234,72.528 L22.566,80.547 L21.852,61.766 L3.059,61.892 L10.727,53.873 L29.521,53.746 ZM22.365,41.703 L41.159,41.576 L41.873,60.358 L34.204,68.377 L33.490,49.595 L14.697,49.722 L22.365,41.703 ZM60.637,40.848 L68.656,48.516 L49.875,49.230 L50.001,68.024 L41.982,60.355 L41.855,41.561 L60.637,40.848 ZM80.826,60.155 L62.045,60.868 L62.171,79.662 L54.152,71.994 L54.025,53.199 L72.807,52.486 L80.826,60.155 Z" class="cls-1"/>
    <path d="M83.008,54.996 L71.913,54.996 L58.831,41.500 L71.913,28.004 L83.008,28.004 L69.928,41.500 L83.008,54.996 ZM66.169,54.996 L55.073,54.996 L41.992,41.500 L55.073,28.004 L66.169,28.004 L53.088,41.500 L66.169,54.996 ZM28.004,27.927 L28.004,16.831 L41.499,29.912 L54.996,16.831 L54.996,27.927 L41.499,41.008 L28.004,27.927 ZM28.004,11.087 L28.004,-0.008 L41.499,13.072 L54.996,-0.008 L54.996,11.087 L41.499,24.168 L28.004,11.087 ZM27.927,54.996 L16.831,54.996 L29.912,41.500 L16.831,28.004 L27.927,28.004 L41.008,41.500 L27.927,54.996 ZM11.087,54.996 L-0.008,54.996 L13.072,41.500 L-0.008,28.004 L11.087,28.004 L24.169,41.500 L11.087,54.996 ZM54.996,55.073 L54.996,66.168 L41.499,53.088 L28.004,66.168 L28.004,55.073 L41.499,41.992 L54.996,55.073 ZM54.996,71.913 L54.996,83.008 L41.499,69.928 L28.004,83.008 L28.004,71.913 L41.499,58.831 L54.996,71.913 Z" class="cls-2"/>
  </g>
</svg>
