<svg xmlns="http://www.w3.org/2000/svg" xmlns:xlink="http://www.w3.org/1999/xlink" preserveAspectRatio="xMidYMid" width="24" height="18" viewBox="0 0 24 18">
  <defs>
    <style>
      .cls-1 {
        fill: #b99403;
        fill-rule: evenodd;
      }
    </style>
  </defs>
  <path d="M23.736,17.300 L15.460,9.023 L21.585,2.898 L23.755,0.728 C23.897,0.957 24.000,1.211 24.000,1.500 L24.000,16.500 C24.000,16.801 23.889,17.065 23.736,17.300 ZM21.055,2.368 L18.261,5.162 L12.915,10.508 L11.977,11.446 L2.945,2.415 L1.445,0.915 L0.756,0.226 C0.979,0.095 1.223,-0.000 1.500,-0.000 L22.500,-0.000 C22.764,-0.000 23.000,0.087 23.216,0.207 L22.461,0.962 L21.055,2.368 ZM0.915,1.445 L8.470,9.000 L0.226,17.244 C0.095,17.021 -0.000,16.777 -0.000,16.500 L-0.000,1.500 C-0.000,1.223 0.095,0.978 0.226,0.756 L0.915,1.445 L0.915,1.445 ZM9.000,9.530 L9.317,9.847 L9.430,9.960 L10.461,10.991 L11.961,12.491 L12.023,12.429 L12.039,12.444 L13.445,11.038 L14.930,9.554 L23.188,17.812 C22.979,17.922 22.752,18.000 22.500,18.000 L1.500,18.000 C1.223,18.000 0.979,17.905 0.756,17.774 L9.000,9.530 Z" class="cls-1"/>
</svg>
