<svg xmlns="http://www.w3.org/2000/svg" xmlns:xlink="http://www.w3.org/1999/xlink" preserveAspectRatio="xMidYMid" width="19" height="19" viewBox="0 0 19 19">
  <defs>
    <style>
      .cls-1 {
        fill: #b99403;
        fill-rule: evenodd;
      }
    </style>
  </defs>
  <path d="M13.958,1.578 C13.003,2.532 13.003,4.078 13.958,5.032 C14.914,5.985 16.463,5.985 17.418,5.032 L18.818,3.634 C18.925,4.035 19.000,4.449 19.000,4.883 C19.000,7.580 16.809,9.767 14.107,9.767 C13.666,9.767 13.246,9.690 12.840,9.581 C12.826,9.595 12.822,9.615 12.808,9.628 L4.158,18.261 C3.202,19.215 1.653,19.215 0.698,18.261 C-0.258,17.308 -0.258,15.762 0.698,14.808 L9.348,6.175 C9.363,6.161 9.383,6.157 9.398,6.142 C9.290,5.738 9.213,5.322 9.213,4.883 C9.213,2.186 11.404,-0.000 14.107,-0.000 C14.542,-0.000 14.956,0.075 15.358,0.181 L13.958,1.578 ZM2.485,15.871 C2.147,15.871 1.873,16.145 1.873,16.482 C1.873,16.819 2.147,17.092 2.485,17.092 C2.823,17.092 3.097,16.819 3.097,16.482 C3.097,16.145 2.823,15.871 2.485,15.871 Z" class="cls-1"/>
</svg>
